<svg id="Layer_1" data-name="Layer 1" xmlns="http://www.w3.org/2000/svg" viewBox="0 0 131.78 214.18"><defs><style>.cls-1{fill:#1d1d1b;}</style></defs><title>circle_decoration</title><path class="cls-1" d="M111.94,129.65l.17-.78c1.66-8.87,9.15-21.42,19.67-21.42-10.29,0-18-11.71-19.55-21.48-.23-1.21-.28-1.4-.55-2.59a2.14,2.14,0,0,0-.07-.43h0A107.14,107.14,0,0,0,7.25,0C4.81,0,2.4.09,0,.25A107.08,107.08,0,0,1,99.84,107.09,107.08,107.08,0,0,1,0,213.93c2.4.16,4.81.25,7.25.25a107.13,107.13,0,0,0,104.23-82.49"/></svg>