<?xml version="1.0" encoding="utf-8"?>
<!-- Generator: Adobe Illustrator 24.0.1, SVG Export Plug-In . SVG Version: 6.00 Build 0)  -->
<svg version="1.1" id="Livello_1" xmlns="http://www.w3.org/2000/svg" xmlns:xlink="http://www.w3.org/1999/xlink" x="0px" y="0px"
	 viewBox="0 0 1000 1000" style="enable-background:new 0 0 1000 1000;" xml:space="preserve">
<style type="text/css">
	.st0{fill:#BCC880;}
</style>
<g>
	<polygon class="st0" points="462.5,911.6 462.2,842.8 735.5,842.8 499.9,219.5 264,842.8 311.7,842.8 310.5,911.6 163.2,911.6 
		499.9,21.7 836.5,911.6 	"/>
</g>
<g>
	<polygon class="st0" points="499.9,121.4 641.1,495.7 596.8,633.7 498.1,371.5 447.2,502.6 402.9,371.5 	"/>
	<path class="st0" d="M598.6,708.1l-100.9-268l-52.1,134.3l-68.8-203.5L500.2,52.8L667,495.1L598.6,708.1z M498.5,302.9L595,559.3
		l20.2-62.9L499.6,190L429,372.1l19.8,58.7L498.5,302.9z"/>
</g>
</svg>
