<?xml version="1.0" encoding="utf-8"?>
<!-- Generator: Adobe Illustrator 22.0.0, SVG Export Plug-In . SVG Version: 6.00 Build 0)  -->
<svg version="1.1" id="Livello_1" xmlns="http://www.w3.org/2000/svg" xmlns:xlink="http://www.w3.org/1999/xlink" x="0px" y="0px"
	 viewBox="0 0 1000 1000" style="enable-background:new 0 0 1000 1000;" xml:space="preserve">
<g>
	<polygon points="462.6,913.6 462.2,843.6 735,842.2 499.9,220.3 264.4,842.8 311.7,843.6 310.5,913.6 163.8,911 499.9,22.5 
		836.2,911.6 	"/>
</g>
<g>
	<polygon points="499.9,121.4 641.1,495.7 596.8,633.7 498.1,371.5 447.2,502.6 402.9,371.5 	"/>
	<path d="M598.6,708.1l-100.9-268l-52.1,134.3l-68.8-203.5L500.2,52.8L667,495.1L598.6,708.1z M498.5,302.9L595,559.3l20.2-62.9
		L499.6,190L429,372.1l19.8,58.7L498.5,302.9z"/>
</g>
</svg>
